<?xml version="1.0" encoding="utf-8"?>
<!-- Generator: Adobe Illustrator 24.0.3, SVG Export Plug-In . SVG Version: 6.00 Build 0)  -->
<svg version="1.1" id="Calque_1" xmlns="http://www.w3.org/2000/svg" xmlns:xlink="http://www.w3.org/1999/xlink" x="0px" y="0px"
	 viewBox="0 0 537.1 95.9" style="enable-background:new 0 0 537.1 95.9;" xml:space="preserve">
<style type="text/css">
	.st0{fill:#008D36;}
	.st1{fill:#95C11F;}
	.st2{fill:#3AAA35;}
	.st3{fill:#DEDC00;}
	.st4{fill:#006633;}
</style>
<g>
	<g>
		<path class="st0" d="M400.3,32.5c-1.7-2.2-3.9-3.6-6.4-4.4c1-0.3,1.9-0.8,2.9-1.5c0.9-0.7,1.8-1.5,2.5-2.5c0.7-1,1.3-2.2,1.8-3.5
			c0.5-1.3,0.7-2.8,0.7-4.5c0-2.6-0.5-4.9-1.6-6.9c-1.1-2-2.6-3.6-4.5-5c-2-1.3-4.3-2.3-7.1-3c-2.8-0.7-5.9-1-9.3-1h-49
			c0.6,0.3,1.1,0.7,1.7,1c5.1,3.5,8.8,8.1,10.9,13.8h37.2c1.3,0,2.4,0.3,3.4,0.8c1,0.5,1.5,1.5,1.5,2.9c0,1.5-0.5,2.5-1.5,3
			c-1,0.5-2.2,0.8-3.5,0.8h-35.4c0.3,2,0.4,4,0.4,6.2c0,2.1-0.1,4.1-0.4,6.1h35.1c1.9,0,3.3,0.3,4.2,1c0.9,0.7,1.3,1.6,1.3,2.9
			c0,1.3-0.4,2.3-1.3,3c-0.9,0.7-2.3,1-4.2,1h-37c-2.1,5.5-5.5,9.9-10.4,13.3v1.4h47.3c4.5,0,8.3-0.4,11.3-1.3c3-0.9,5.4-2,7.1-3.5
			c1.8-1.5,3-3.2,3.8-5.3c0.7-2,1.1-4.2,1.1-6.6C402.9,37.5,402,34.7,400.3,32.5z"/>
		<path class="st0" d="M237.6,42.9h-29.5c-2.4,0-4.6-0.3-6.7-1c-2.1-0.7-3.8-1.6-5.3-2.8c-1.5-1.2-2.7-2.6-3.5-4.3
			c-0.8-1.7-1.2-3.6-1.2-5.6c0-2.1,0.4-3.9,1.3-5.6c0.9-1.7,2-3.2,3.5-4.4c1.5-1.2,3.3-2.2,5.3-2.9c2.1-0.7,4.3-1,6.7-1h29.4
			c2.1-5.7,5.8-10.4,10.9-13.8c0.1-0.1,0.2-0.1,0.3-0.2V0.3h-40.6c-5,0-9.6,0.7-13.8,2c-4.2,1.3-7.9,3.3-10.9,5.7
			c-2.1,1.7-3.8,3.6-5.3,5.8c1.9,4.4,2.8,9.4,2.8,15.1c0,5.5-0.9,10.4-2.6,14.6c1.4,2.1,3.1,4,5.1,5.7c3.1,2.6,6.7,4.6,10.9,6.1
			c4.2,1.5,8.8,2.2,13.8,2.2h40.6v-0.8c-0.1-0.1-0.3-0.2-0.4-0.3C243.3,53.1,239.7,48.5,237.6,42.9z"/>
		<path class="st1" d="M98.1,1.4c0.5-0.4,1.1-0.7,1.7-1.1H33.3c-4.3,0-8.1,0.4-11.2,1.3c-3.1,0.9-5.6,2.1-7.6,3.6s-3.4,3.4-4.4,5.6
			c-0.9,2.2-1.4,4.6-1.4,7.3c0,2.5,0.4,4.7,1.3,6.7c0.9,2,2.2,3.8,3.9,5.2c1.8,1.4,4,2.5,6.7,3.3c2.7,0.8,5.9,1.2,9.6,1.2h31.1
			c2.1,0,3.7,0.3,4.6,0.9c1,0.6,1.5,1.7,1.5,3.2c0,1.5-0.5,2.6-1.5,3.2c-1,0.7-2.5,1-4.6,1H0v14.7h60c4.3,0,8.1-0.4,11.2-1.3
			c3.1-0.9,5.7-2.1,7.7-3.7c2-1.6,3.5-3.6,4.4-5.9c0.9-2.3,1.4-5,1.4-7.9c0-5.2-1.8-9.2-5.5-11.8c-3.7-2.6-9-3.9-16-3.9H31.9
			c-2.1,0-3.6-0.3-4.6-0.9c-1-0.6-1.5-1.6-1.5-3.1c0-1.5,0.5-2.5,1.5-3.1c1-0.6,2.5-0.9,4.6-0.9h55.3C89.4,9.5,93,4.9,98.1,1.4z"/>
	</g>
	<g>
		<g>
			<polygon class="st1" points="516.2,57.6 516.2,15.2 534.6,15.2 534.6,0.3 462.5,0.3 473.6,15.2 498.5,15.2 498.5,48.1 
				507.3,57.6 			"/>
		</g>
	</g>
	<g>
		<g>
			<polygon class="st2" points="401.6,57.6 418.6,57.6 447.1,17.5 475.6,57.6 492.2,57.6 451.7,0.3 443.2,0.3 			"/>
		</g>
	</g>
	<path class="st2" d="M175.7,29.4c0,16.1-13.1,29.2-29.2,29.2h-26.7c-16.1,0-29.2-13.1-29.2-29.2l0,0c0-16.1,13.1-29.2,29.2-29.2
		h26.7C162.6,0.3,175.7,13.3,175.7,29.4L175.7,29.4z M159.6,29.4c0-8.7-8.1-15.8-18.1-15.8h-16.6c-10,0-18.1,7.1-18.1,15.8l0,0
		c0,8.7,8.1,15.8,18.1,15.8h16.6C151.4,45.3,159.6,38.2,159.6,29.4L159.6,29.4z"/>
	<g>
		<g>
			<g>
				<path class="st0" d="M17.8,81.7c0.3,0,0.4,0.1,0.4,0.3v1.5c0,0.2-0.1,0.3-0.4,0.3H3.6v9.5h17.5c0.3,0,0.4,0.1,0.4,0.3v1.5
					c0,0.2-0.1,0.3-0.4,0.3H1c-0.3,0-0.4-0.1-0.4-0.3V71c0-0.2,0.1-0.3,0.4-0.3H21c0.3,0,0.5,0.1,0.4,0.4l-0.6,1.5
					c0,0.2-0.2,0.3-0.5,0.3H3.6v8.8H17.8z"/>
				<path class="st0" d="M65.7,95.2c0,0.2-0.1,0.3-0.4,0.3h-2.8c-0.2,0-0.4-0.1-0.5-0.3c-0.6-1.1-1.7-2.5-2.6-3.5l-13-15.1
					c-0.6-0.8-1.2-1.6-1.5-2.1c-0.2-0.3-0.6-0.2-0.5,0.1c0.2,0.9,0.3,2.1,0.3,3.4v17.1c0,0.2-0.1,0.3-0.4,0.3h-2.2
					c-0.3,0-0.4-0.1-0.4-0.3V71c0-0.2,0.1-0.3,0.4-0.3h2.9c0.2,0,0.4,0.1,0.5,0.3c0.7,1,1.7,2.5,2.6,3.5l13,15.1
					c0.6,0.8,1.2,1.6,1.5,2.2c0.2,0.3,0.6,0.2,0.5-0.1c-0.2-0.9-0.3-2.2-0.3-3.4V71c0-0.2,0.1-0.3,0.4-0.3h2.2
					c0.3,0,0.4,0.1,0.4,0.3V95.2z"/>
				<path class="st0" d="M103.1,88.9c-1,2-1.9,4.3-2.6,6.4c0,0.2-0.2,0.3-0.5,0.3h-2.6c-0.2,0-0.4-0.1-0.5-0.3
					c-0.6-2-1.5-4.4-2.5-6.4l-9.4-17.8c-0.1-0.2,0-0.4,0.3-0.4h2.4c0.3,0,0.4,0.1,0.5,0.3l8.5,16.3c0.8,1.7,1.4,3.4,1.7,4.5
					c0,0.3,0.5,0.3,0.5,0c0.3-1.1,0.9-2.9,1.7-4.5l8.5-16.3c0.1-0.2,0.2-0.3,0.5-0.3h2.4c0.3,0,0.4,0.1,0.3,0.4L103.1,88.9z"/>
				<path class="st0" d="M135,95.2c0,0.2-0.1,0.3-0.4,0.3h-2.2c-0.3,0-0.4-0.1-0.4-0.3V71c0-0.2,0.1-0.3,0.4-0.3h2.2
					c0.3,0,0.4,0.1,0.4,0.3V95.2z"/>
				<path class="st0" d="M169.1,70.7c6.1,0,9.7,2.5,9.7,6.7c0,3.3-2.6,5.5-6.7,6.5c-0.5,0.1-0.6,0.4,0,0.6c2.2,0.9,3.7,2.6,4.7,4.4
					l3.3,6.2c0.1,0.3,0,0.4-0.3,0.4h-2.4c-0.2,0-0.4-0.1-0.5-0.3l-3-5.4c-1.8-3.4-4.5-4.9-9-4.9h-5.2v10.3c0,0.2-0.1,0.3-0.4,0.3
					h-2.2c-0.3,0-0.4-0.1-0.4-0.3V71c0-0.2,0.1-0.3,0.4-0.3H169.1z M166.3,82.8c6,0,9.4-1.9,9.4-5.2c0-2.9-2.5-4.7-6.6-4.7h-9.4v9.9
					H166.3z"/>
				<path class="st0" d="M224.8,83.1c0,7.9-5,12.8-13.2,12.8c-8.2,0-13.2-4.9-13.2-12.8s5-12.8,13.2-12.8
					C219.8,70.3,224.8,75.3,224.8,83.1z M201.5,83.1c0,6.6,3.7,10.5,10.1,10.5c6.4,0,10.1-3.9,10.1-10.5c0-6.6-3.7-10.5-10.1-10.5
					C205.2,72.6,201.5,76.5,201.5,83.1z"/>
				<path class="st0" d="M269.1,95.2c0,0.2-0.1,0.3-0.4,0.3h-2.8c-0.2,0-0.4-0.1-0.5-0.3c-0.6-1.1-1.7-2.5-2.6-3.5l-13-15.1
					c-0.6-0.8-1.2-1.6-1.5-2.1c-0.2-0.3-0.6-0.2-0.5,0.1c0.2,0.9,0.3,2.1,0.3,3.4v17.1c0,0.2-0.1,0.3-0.4,0.3h-2.2
					c-0.3,0-0.4-0.1-0.4-0.3V71c0-0.2,0.1-0.3,0.4-0.3h2.9c0.2,0,0.4,0.1,0.5,0.3c0.7,1,1.7,2.5,2.6,3.5l13,15.1
					c0.6,0.8,1.2,1.6,1.5,2.2c0.2,0.3,0.6,0.2,0.5-0.1c-0.2-0.9-0.3-2.2-0.3-3.4V71c0-0.2,0.1-0.3,0.4-0.3h2.2
					c0.3,0,0.4,0.1,0.4,0.3V95.2z"/>
				<path class="st0" d="M314.8,95.2c0,0.2-0.1,0.3-0.4,0.3h-2.8c-0.2,0-0.4-0.1-0.5-0.3c-0.6-1.1-1.7-2.5-2.6-3.5l-13-15.1
					c-0.6-0.8-1.2-1.6-1.5-2.1c-0.2-0.3-0.6-0.2-0.5,0.1c0.2,0.9,0.3,2.1,0.3,3.4v17.1c0,0.2-0.1,0.3-0.4,0.3h-2.2
					c-0.3,0-0.4-0.1-0.4-0.3V71c0-0.2,0.1-0.3,0.4-0.3h2.9c0.2,0,0.4,0.1,0.5,0.3c0.7,1,1.7,2.5,2.6,3.5l13,15.1
					c0.6,0.8,1.2,1.6,1.5,2.2c0.2,0.3,0.6,0.2,0.5-0.1c-0.2-0.9-0.3-2.2-0.3-3.4V71c0-0.2,0.1-0.3,0.4-0.3h2.2
					c0.3,0,0.4,0.1,0.4,0.3V95.2z"/>
				<path class="st0" d="M353.7,81.7c0.3,0,0.4,0.1,0.4,0.3v1.5c0,0.2-0.1,0.3-0.4,0.3h-14.2v9.5H357c0.3,0,0.4,0.1,0.4,0.3v1.5
					c0,0.2-0.1,0.3-0.4,0.3h-20.1c-0.3,0-0.4-0.1-0.4-0.3V71c0-0.2,0.1-0.3,0.4-0.3h19.9c0.3,0,0.5,0.1,0.4,0.4l-0.6,1.5
					c0,0.2-0.2,0.3-0.5,0.3h-16.6v8.8H353.7z"/>
				<path class="st0" d="M406.1,95.2c0,0.2-0.1,0.3-0.4,0.3h-2.2c-0.3,0-0.4-0.1-0.4-0.3V79.5c0-1.6,0.1-3.4,0.3-4.8
					c0-0.4-0.4-0.6-0.6-0.1c-0.5,1-1,1.9-1.5,2.9l-6.2,10.7c-0.5,1-1.2,2.4-1.7,3.6c0,0.2-0.2,0.3-0.5,0.3h-2.1
					c-0.2,0-0.4-0.1-0.5-0.3c-0.5-1.2-1.2-2.6-1.8-3.6l-6.1-10.6c-0.6-1-1.1-2-1.6-2.9c-0.2-0.5-0.6-0.3-0.5,0.1
					c0.2,1.4,0.3,3.2,0.3,4.8v15.7c0,0.2-0.1,0.3-0.4,0.3h-2.2c-0.3,0-0.4-0.1-0.4-0.3V71c0-0.2,0.1-0.3,0.4-0.3h3.6
					c0.2,0,0.4,0.1,0.5,0.3c0.4,0.9,0.9,2,1.4,2.9l6.8,11.8c0.5,1,1,2.1,1.3,3c0.1,0.4,0.5,0.4,0.6,0c0.4-0.9,0.8-1.9,1.3-2.9
					l6.8-11.8c0.5-0.9,1-2,1.4-2.9c0-0.2,0.2-0.3,0.5-0.3h3.6c0.3,0,0.4,0.1,0.4,0.3V95.2z"/>
				<path class="st0" d="M445,81.7c0.3,0,0.4,0.1,0.4,0.3v1.5c0,0.2-0.1,0.3-0.4,0.3h-14.2v9.5h17.5c0.3,0,0.4,0.1,0.4,0.3v1.5
					c0,0.2-0.1,0.3-0.4,0.3h-20.1c-0.3,0-0.4-0.1-0.4-0.3V71c0-0.2,0.1-0.3,0.4-0.3h19.9c0.3,0,0.5,0.1,0.4,0.4l-0.6,1.5
					c0,0.2-0.2,0.3-0.5,0.3h-16.6v8.8H445z"/>
				<path class="st0" d="M492.9,95.2c0,0.2-0.1,0.3-0.4,0.3h-2.8c-0.2,0-0.4-0.1-0.5-0.3c-0.6-1.1-1.7-2.5-2.6-3.5l-13-15.1
					c-0.6-0.8-1.2-1.6-1.5-2.1c-0.2-0.3-0.6-0.2-0.5,0.1c0.2,0.9,0.3,2.1,0.3,3.4v17.1c0,0.2-0.1,0.3-0.4,0.3h-2.2
					c-0.3,0-0.4-0.1-0.4-0.3V71c0-0.2,0.1-0.3,0.4-0.3h2.9c0.2,0,0.4,0.1,0.5,0.3c0.7,1,1.7,2.5,2.6,3.5l13,15.1
					c0.6,0.8,1.2,1.6,1.5,2.2c0.2,0.3,0.6,0.2,0.5-0.1c-0.2-0.9-0.3-2.2-0.3-3.4V71c0-0.2,0.1-0.3,0.4-0.3h2.2
					c0.3,0,0.4,0.1,0.4,0.3V95.2z"/>
				<path class="st0" d="M537.1,72.5c0,0.2-0.1,0.3-0.4,0.3h-10.4v22.3c0,0.2-0.1,0.3-0.4,0.3h-2.2c-0.3,0-0.4-0.1-0.4-0.3V72.9
					h-10.4c-0.3,0-0.4-0.1-0.4-0.3V71c0-0.2,0.1-0.3,0.4-0.3h23.8c0.3,0,0.4,0.1,0.4,0.3V72.5z"/>
			</g>
		</g>
	</g>
	<g>
		<g>
			<path class="st2" d="M262.1,25.6c1.2-1,2.5-1.7,3.7-2.3c-0.1-2-0.2-10.4,6.3-22.7c0,0-14.3,1.1-21.7,16.4
				c-7,14.4,1.8,27.7,1.8,27.7s-1.1-22.2,7.7-32.1c0,0-6.2,7.9-6.5,23.7C254.8,33.1,257.4,29.3,262.1,25.6z"/>
		</g>
	</g>
	<g>
		<path class="st1" d="M270.7,27.2c-5.2,1.7-10.9,8.6-13.4,11.8c2-1.4,4.6-2.6,7.8-2.9c1.8-0.1,3.4,0.1,4.8,0.5
			c5.2-8,13.5-11.9,13.5-11.9s-10.2-6.3-20.6,1.7c-9.5,7.3-9.7,15.3-9.7,16.7c0.5-0.7,1.2-1.5,2.1-2.4
			C266.1,26.6,270.7,27.2,270.7,27.2z"/>
		<path class="st3" d="M264.9,37.1c-7.4,0.6-11,7.1-11.2,7.5c11.1-7,13.5-4.8,13.5-4.8c-6.4-0.2-13.9,6-13.9,6l-0.1,0.1
			c4,3.9,11.2-1,14-2.6c2.8-1.7,7.4-2.2,7.4-2.2S271.1,36.6,264.9,37.1z"/>
	</g>
	<g>
		<g>
			<path class="st4" d="M303.3,0h-26.6c-0.5,0-1.1,0-1.6,0l-0.9,1.7c-3.8,7.1-5.2,12.9-5.7,16.6c3.3-3.1,8-5.1,13.3-5.1h16.5
				c10,0,18.1,7.1,18.1,15.8s-8.1,15.8-18.1,15.8h-16.5c-2.6,0-5-0.5-7.2-1.3c-1.4,0.2-4.3,0.8-6,1.8l-0.4,0.2
				c-2.4,1.5-6.8,4.2-11,4.2h0c-0.3,0-0.5,0-0.8,0c5.2,5.2,12.4,8.4,20.4,8.4h26.6c16.1,0,29.1-13,29.1-29.1
				C332.4,13,319.4,0,303.3,0z"/>
		</g>
	</g>
	<polygon class="st2" points="472.8,48.1 422.3,48.1 425.3,34.6 466.1,34.6 	"/>
</g>
<g>
</g>
<g>
</g>
<g>
</g>
<g>
</g>
<g>
</g>
<g>
</g>
</svg>
