<?xml version="1.0" standalone="no"?>
<!DOCTYPE svg PUBLIC "-//W3C//DTD SVG 20010904//EN"
 "http://www.w3.org/TR/2001/REC-SVG-20010904/DTD/svg10.dtd">
<svg version="1.0" xmlns="http://www.w3.org/2000/svg"
 width="1360.000000pt" height="1360.000000pt" viewBox="0 0 1360.000000 1360.000000"
 preserveAspectRatio="xMidYMid meet">
<metadata>
Created by potrace 1.11, written by Peter Selinger 2001-2013
</metadata>
<g transform="translate(0.000000,1360.000000) scale(0.100000,-0.100000)"
fill="#000000" stroke="none">
<path d="M4353 11353 c-34 -65 -85 -161 -112 -213 -58 -109 -152 -298 -206
-415 -20 -44 -48 -102 -61 -130 -31 -67 -144 -335 -144 -343 0 -4 -7 -20 -16
-37 -9 -16 -17 -37 -19 -45 -2 -8 -9 -28 -16 -45 -7 -16 -13 -33 -14 -37 -2
-5 -4 -10 -5 -13 -1 -3 -3 -8 -5 -12 -1 -5 -7 -21 -14 -38 -17 -44 -35 -97
-40 -117 -1 -4 -9 -24 -17 -45 -9 -20 -17 -44 -19 -52 -2 -9 -9 -32 -16 -51
-7 -19 -14 -42 -17 -50 -8 -24 -8 -24 -15 -40 -3 -8 -9 -28 -13 -45 -8 -35 -5
-24 -43 -150 -17 -55 -33 -109 -36 -120 -2 -11 -9 -38 -15 -60 -16 -60 -16
-61 -45 -180 -15 -60 -28 -119 -29 -130 -1 -11 -6 -33 -9 -50 -7 -29 -12 -52
-22 -105 -3 -14 -7 -35 -9 -47 -3 -11 -8 -43 -12 -70 -9 -52 -11 -62 -13 -65
-1 -2 -4 -27 -7 -57 -4 -51 -3 -54 13 -39 10 8 34 28 53 44 18 16 44 38 55 49
12 11 55 45 96 75 41 29 82 62 92 72 10 10 24 18 32 18 7 0 15 4 17 8 5 12
130 89 253 156 11 6 23 15 26 19 3 5 9 8 13 7 4 -1 48 19 99 43 51 24 139 62
197 85 127 49 142 54 155 58 6 1 24 7 42 12 17 6 34 8 37 4 3 -3 6 0 6 6 0 7
10 12 23 12 13 0 27 3 31 7 3 4 12 8 19 9 7 2 21 5 32 7 149 34 258 57 290 62
23 3 51 7 64 10 13 2 49 7 80 10 31 3 83 9 116 13 85 10 3123 9 3220 -1 44 -5
100 -10 125 -12 25 -2 56 -6 70 -9 14 -3 43 -8 65 -11 73 -12 89 -15 195 -40
58 -14 116 -27 129 -30 13 -3 32 -10 43 -16 10 -5 18 -7 18 -5 0 5 177 -53
225 -73 11 -5 52 -21 90 -37 342 -136 691 -369 963 -644 69 -70 234 -264 241
-283 2 -7 11 -17 20 -24 9 -7 12 -13 7 -13 -6 0 2 -12 15 -27 14 -16 41 -53
59 -83 18 -30 40 -66 48 -80 9 -14 14 -25 11 -25 -2 0 6 -13 17 -30 19 -26 70
-131 76 -153 1 -4 11 -27 24 -52 12 -25 32 -74 44 -110 12 -36 25 -72 28 -80
8 -22 9 -27 36 -130 35 -129 51 -219 61 -340 2 -25 4 -45 5 -45 8 0 5 -303 -3
-312 -6 -9 -6 -13 2 -13 7 0 10 -4 7 -9 -3 -5 -8 -35 -11 -67 -3 -33 -8 -70
-10 -84 -5 -28 -14 -82 -20 -122 -14 -81 -82 -316 -97 -333 -4 -5 -8 -15 -8
-23 0 -20 -89 -220 -114 -257 -12 -16 -20 -32 -19 -35 7 -26 -246 -390 -321
-459 -14 -14 -26 -31 -26 -39 0 -9 -3 -13 -6 -10 -3 3 -26 -17 -52 -46 -26
-28 -50 -53 -53 -56 -3 -3 -41 -36 -84 -75 -42 -38 -84 -74 -92 -79 -8 -4 -23
-16 -32 -25 -54 -51 -229 -170 -361 -247 -136 -79 -308 -161 -428 -205 -131
-48 -199 -72 -227 -79 -16 -4 -64 -17 -105 -28 -41 -11 -86 -23 -100 -26 -14
-2 -57 -11 -96 -20 -38 -8 -90 -18 -115 -21 -24 -3 -60 -8 -79 -11 -58 -8
-102 -13 -175 -20 -73 -8 -3109 -8 -3205 -1 -55 4 -142 15 -191 22 -14 3 -43
7 -65 11 -21 3 -48 7 -59 9 -11 3 -36 7 -55 10 -19 4 -60 13 -90 20 -30 8 -66
16 -80 19 -14 3 -50 12 -80 21 -30 9 -62 17 -70 19 -8 2 -49 16 -90 31 -106
38 -137 38 -340 -5 -58 -12 -112 -24 -120 -25 -8 -2 -15 -4 -15 -5 0 -1 -7 -3
-15 -5 -8 -1 -44 -11 -80 -20 -36 -9 -72 -18 -80 -20 -36 -8 -176 -58 -187
-67 -7 -6 -13 -8 -13 -5 0 10 -216 -88 -230 -104 -5 -6 -41 -22 -52 -23 -4 -1
-17 -9 -28 -19 -11 -9 -22 -17 -25 -17 -3 0 -41 -23 -85 -50 -44 -28 -84 -50
-89 -50 -5 0 -11 -4 -13 -8 -4 -11 -371 -215 -428 -238 -8 -3 -39 -17 -68 -30
-29 -13 -57 -24 -62 -24 -6 0 -10 -4 -10 -8 0 -5 -6 -9 -12 -10 -7 0 -69 -23
-138 -50 -125 -50 -214 -80 -260 -89 -13 -2 -30 -9 -37 -15 -7 -6 -13 -8 -13
-5 0 3 -15 1 -32 -4 -18 -5 -49 -12 -68 -15 -19 -3 -44 -8 -55 -11 -11 -3 -29
-7 -40 -9 -11 -1 -55 -8 -98 -14 -43 -6 -134 -12 -203 -13 -68 -1 -124 -5
-124 -8 0 -7 80 -89 86 -89 3 0 25 -20 51 -45 46 -45 61 -58 198 -172 75 -63
199 -157 280 -212 28 -19 52 -37 55 -40 3 -3 17 -13 32 -21 15 -8 68 -41 119
-72 50 -32 93 -58 95 -58 2 0 27 -15 56 -33 112 -70 428 -220 603 -286 33 -13
69 -27 80 -32 98 -42 524 -164 650 -185 6 -1 12 -3 15 -4 6 -2 28 -6 90 -16
25 -4 47 -8 50 -9 3 -1 32 -5 65 -10 33 -5 62 -10 65 -10 15 -4 129 -18 159
-20 20 -1 36 -3 36 -5 0 -2 46 -6 210 -15 165 -10 4639 -11 4800 -1 138 8 229
15 266 22 35 5 104 14 154 20 22 2 63 8 90 13 28 5 64 12 80 15 70 13 259 53
263 56 1 2 10 3 20 4 9 1 22 4 27 7 6 4 28 10 50 14 45 9 54 12 58 15 1 1 9 3
17 5 53 13 204 62 240 77 14 6 34 13 45 15 11 2 35 10 53 19 18 8 42 16 52 17
11 1 20 4 20 7 0 3 24 14 53 25 105 37 412 185 550 265 43 25 97 56 120 69 49
28 380 250 387 260 3 4 34 29 70 56 36 26 70 53 75 59 6 6 24 22 40 35 106 81
436 402 515 499 19 24 46 56 60 71 14 14 39 44 55 65 17 21 35 44 40 50 6 6
24 29 40 51 17 22 33 44 37 50 4 5 26 33 48 62 22 29 40 57 40 62 0 5 4 11 9
13 7 3 106 148 137 203 6 11 37 63 68 115 82 135 235 450 301 620 50 127 140
387 149 430 1 8 8 35 15 60 7 25 15 52 16 60 2 8 11 42 20 74 9 33 18 76 21
95 3 20 8 39 10 42 2 3 6 20 9 37 3 18 8 47 11 65 4 17 7 44 8 60 0 15 3 27 6
27 4 0 6 10 7 23 0 20 8 77 18 137 16 96 20 207 20 600 0 393 -5 535 -20 621
-3 13 -7 40 -9 59 -2 20 -7 47 -10 60 -3 14 -8 41 -10 60 -4 31 -15 89 -31
160 -3 14 -8 40 -11 58 -3 19 -12 55 -19 80 -8 25 -12 49 -9 54 3 4 0 8 -5 8
-6 0 -10 3 -9 8 2 9 -11 69 -22 102 -7 20 -80 251 -85 270 -1 3 -7 18 -13 33
-7 16 -12 34 -12 42 0 8 -4 16 -9 19 -5 3 -12 18 -16 33 -3 15 -17 52 -31 81
-13 29 -24 57 -24 61 0 31 -191 410 -282 560 -21 34 -38 65 -38 67 0 3 -9 17
-19 32 -10 15 -56 83 -101 152 -46 69 -86 127 -90 130 -3 3 -20 25 -38 50 -17
25 -41 57 -54 72 -13 14 -30 36 -38 48 -8 12 -24 32 -35 44 -11 13 -37 43 -57
68 -101 122 -339 365 -458 468 -35 30 -78 69 -97 87 -18 17 -33 30 -33 27 0
-4 -30 19 -54 42 -19 18 -208 158 -261 194 -27 19 -51 37 -53 42 -2 4 -9 8
-16 8 -7 0 -21 8 -32 18 -11 9 -30 23 -42 30 -56 31 -67 38 -81 50 -9 7 -20
12 -25 11 -5 0 -12 3 -15 8 -20 29 -488 270 -513 265 -5 -1 -8 3 -8 8 0 6 -7
10 -15 10 -8 0 -23 4 -33 9 -31 17 -90 41 -99 41 -4 0 -20 6 -35 14 -21 11
-84 35 -108 41 -3 1 -12 4 -20 8 -60 24 -329 106 -403 122 -10 2 -28 7 -40 11
-12 4 -31 9 -42 10 -20 3 -28 5 -75 17 -26 7 -71 16 -105 22 -20 3 -110 19
-170 30 -34 6 -102 15 -155 20 -19 2 -35 4 -35 5 0 1 -27 3 -60 6 -33 2 -76 7
-95 10 -19 4 -1131 9 -2470 11 l-2435 4 -62 -118z"/>
<path d="M3909 11376 c-2 -2 -29 -7 -59 -11 -30 -3 -63 -8 -72 -11 -9 -3 -32
-6 -50 -8 -26 -3 -192 -40 -318 -71 -8 -2 -60 -17 -115 -35 -55 -17 -107 -32
-115 -34 -8 -3 -53 -18 -100 -35 -47 -18 -93 -34 -104 -36 -10 -2 -23 -8 -30
-13 -6 -5 -29 -15 -51 -22 -22 -7 -90 -36 -152 -65 -61 -29 -129 -61 -152 -71
-23 -10 -41 -21 -41 -26 0 -4 -7 -8 -15 -8 -17 0 -218 -110 -223 -122 -2 -4
-8 -8 -14 -8 -11 0 -129 -71 -223 -136 -116 -78 -200 -138 -211 -149 -7 -6
-44 -36 -83 -66 -39 -29 -71 -57 -71 -61 0 -5 -5 -8 -10 -8 -5 0 -18 -8 -28
-17 -10 -10 -51 -47 -92 -83 -184 -161 -552 -561 -614 -668 -5 -8 -17 -25 -27
-36 -32 -37 -138 -190 -149 -213 -5 -13 -14 -23 -20 -23 -6 0 -8 -4 -5 -10 3
-5 2 -10 -2 -10 -5 0 -13 -9 -18 -20 -6 -11 -37 -64 -70 -117 -62 -101 -93
-157 -142 -253 -15 -30 -31 -57 -34 -60 -5 -5 -45 -86 -114 -235 -32 -68 -106
-245 -109 -260 -1 -5 -4 -14 -8 -20 -8 -14 -109 -325 -113 -350 -2 -11 -11
-45 -20 -75 -9 -30 -18 -64 -20 -75 -2 -11 -12 -61 -23 -111 -11 -50 -23 -111
-27 -135 -3 -24 -8 -51 -10 -59 -2 -8 -7 -37 -10 -65 -4 -27 -9 -66 -11 -85
-22 -160 -29 -287 -29 -550 0 -146 4 -305 8 -355 5 -49 10 -110 13 -135 2 -25
7 -67 10 -95 4 -27 7 -58 8 -67 0 -10 3 -18 6 -18 4 0 6 -16 5 -35 -1 -19 1
-35 4 -35 3 0 7 -10 8 -22 3 -44 21 -148 33 -198 5 -19 11 -46 14 -60 2 -14 9
-45 15 -70 14 -54 19 -78 25 -107 3 -12 9 -30 15 -41 6 -11 8 -21 6 -24 -3 -3
4 -34 15 -69 30 -93 45 -143 46 -149 0 -3 3 -12 7 -20 3 -8 20 -58 38 -110 17
-52 54 -151 81 -220 28 -69 56 -140 62 -158 7 -18 18 -38 24 -44 7 -7 12 -18
12 -25 0 -12 100 -218 152 -313 72 -131 100 -180 104 -180 3 0 4 19 3 43 -2
24 1 49 5 55 4 7 3 12 -1 12 -14 0 -5 707 12 980 7 119 17 261 21 315 2 28 6
82 9 120 2 39 7 90 10 115 3 25 8 70 11 100 3 30 7 71 9 90 3 19 6 58 9 85 3
28 8 70 12 95 3 25 8 60 10 78 7 53 11 86 28 202 3 19 8 53 12 75 8 59 12 80
14 80 1 0 4 14 5 30 2 17 6 46 10 65 4 19 9 50 10 68 2 18 6 36 9 40 2 4 7 26
10 48 8 52 14 82 20 102 3 9 8 33 10 52 3 19 10 55 17 80 19 79 20 85 23 105
2 11 4 20 6 20 1 0 3 9 5 20 7 41 16 81 26 111 5 17 11 40 14 50 2 10 8 34 14
52 5 18 10 35 10 37 1 3 1 6 2 8 0 1 2 9 4 17 9 43 80 277 95 315 6 17 14 41
17 55 2 13 8 29 13 35 4 5 8 12 8 15 -1 10 26 95 32 105 4 6 19 46 35 90 16
44 33 83 39 87 6 4 7 8 3 8 -4 0 -2 10 5 23 7 12 13 24 13 27 2 27 201 438
221 458 8 7 14 18 14 24 0 6 11 26 26 45 14 18 23 33 20 33 -5 0 75 126 93
147 6 7 11 17 11 23 0 5 5 10 12 10 6 0 9 3 5 6 -3 3 -1 11 4 18 5 6 19 22 30
36 12 14 29 36 38 50 21 33 24 37 72 90 l40 45 -26 -40 c-14 -22 -30 -47 -35
-55 -31 -46 -81 -131 -101 -170 -12 -25 -25 -47 -29 -50 -7 -6 -175 -346 -183
-370 -2 -8 -5 -19 -5 -24 0 -5 -4 -12 -9 -15 -5 -3 -20 -33 -33 -66 -13 -33
-31 -79 -42 -102 -10 -23 -18 -45 -18 -48 0 -4 -7 -21 -15 -38 -15 -34 -33
-83 -66 -182 -26 -74 -30 -89 -30 -92 0 -2 -7 -19 -15 -40 -9 -20 -17 -44 -19
-52 -2 -9 -15 -52 -29 -95 -14 -44 -24 -82 -21 -84 3 -3 1 -10 -4 -16 -14 -17
-41 -117 -35 -127 3 -5 1 -9 -4 -9 -5 0 -9 -6 -9 -12 0 -7 -6 -33 -13 -58 -7
-25 -13 -52 -15 -60 -2 -8 -10 -42 -18 -75 -9 -33 -18 -71 -20 -85 -3 -14 -10
-43 -15 -65 -6 -22 -14 -56 -17 -75 -10 -58 -15 -84 -20 -107 -10 -47 -13 -59
-20 -103 -4 -25 -9 -52 -10 -60 -6 -36 -19 -105 -20 -110 -1 -3 -5 -32 -9 -65
-4 -32 -9 -67 -11 -76 -4 -19 -16 -113 -21 -154 -1 -16 -5 -48 -8 -70 -3 -22
-7 -65 -10 -95 -3 -30 -7 -73 -10 -95 -2 -22 -7 -76 -11 -120 -3 -44 -8 -100
-10 -125 -3 -25 -7 -108 -10 -185 -3 -77 -7 -150 -9 -162 -3 -13 0 -23 5 -23
6 0 7 -5 3 -12 -8 -12 -14 -78 -8 -78 5 0 64 128 63 136 0 4 3 10 8 13 4 3 16
22 25 41 38 78 111 205 122 212 6 4 8 8 4 8 -7 0 29 59 52 87 5 7 10 17 10 23
0 5 5 10 10 10 6 0 10 7 10 15 0 8 5 15 10 15 6 0 10 5 10 10 0 16 195 280
212 288 5 2 8 8 8 14 0 5 6 15 13 22 6 7 32 37 57 66 25 29 60 68 78 87 17 19
32 37 32 39 0 8 343 346 395 389 26 22 55 47 64 57 9 9 57 48 106 88 50 39 92
76 93 81 2 5 8 9 13 9 6 0 22 11 37 25 15 14 45 38 67 53 22 15 42 30 43 35 2
4 10 7 17 7 7 0 15 4 17 8 4 12 195 126 313 187 l100 52 1 174 c0 160 7 319
18 427 6 59 26 221 32 257 14 90 17 112 17 133 1 12 3 22 7 22 3 0 6 15 8 33
2 32 9 72 12 72 1 0 3 11 4 25 5 43 17 104 26 135 4 17 16 64 24 105 24 114
24 113 35 148 5 18 10 36 11 40 0 4 5 25 11 47 6 22 13 49 15 61 2 12 10 40
18 63 9 22 13 41 11 41 -3 0 2 17 9 38 8 20 24 71 36 112 12 41 29 95 38 120
9 25 17 47 17 50 7 34 61 187 68 191 5 3 8 8 6 10 -5 8 124 355 166 446 8 17
15 34 15 37 0 3 11 29 24 58 13 29 44 98 68 153 82 185 113 249 215 452 92
182 107 213 92 199z"/>
<path d="M4228 7885 c-3 -3 -54 -7 -114 -10 -107 -4 -158 -9 -239 -22 -22 -3
-50 -6 -62 -6 -13 -1 -23 -3 -23 -6 0 -4 -10 -6 -22 -7 -87 -2 -431 -98 -573
-159 -36 -16 -63 -26 -90 -36 -5 -2 -66 -33 -135 -68 -69 -35 -140 -71 -157
-80 -18 -8 -33 -19 -33 -23 0 -4 -5 -8 -10 -8 -21 0 -397 -259 -420 -290 -3
-3 -23 -19 -45 -36 -21 -16 -47 -36 -55 -44 -9 -8 -47 -42 -85 -75 -180 -159
-276 -254 -465 -467 -28 -32 -30 -34 -85 -103 -22 -27 -42 -52 -46 -55 -3 -3
-21 -27 -40 -55 -18 -27 -36 -52 -39 -55 -18 -17 -60 -80 -60 -89 0 -6 -4 -11
-8 -11 -5 0 -15 -12 -23 -27 -7 -16 -23 -41 -35 -58 -36 -50 -174 -296 -174
-310 0 -7 -7 -18 -15 -25 -8 -6 -14 -15 -13 -18 1 -4 -12 -36 -29 -72 -16 -36
-34 -76 -38 -90 -4 -14 -11 -29 -15 -35 -4 -5 -17 -39 -29 -75 -13 -36 -27
-74 -33 -85 -5 -12 -11 -30 -13 -40 -2 -11 -4 -21 -5 -22 -2 -2 -3 -6 -4 -10
-1 -5 -11 -39 -23 -78 -24 -77 -52 -191 -60 -245 -3 -19 -7 -44 -8 -55 -2 -11
-4 -20 -5 -20 -3 0 -12 -70 -12 -97 0 -16 -3 -28 -7 -28 -3 0 -6 -24 -7 -53 0
-28 -2 -79 -3 -112 -4 -83 -4 -82 23 -42 13 19 35 48 49 63 99 115 128 147
188 209 37 39 90 99 119 135 28 36 65 82 83 104 18 21 36 47 41 57 5 11 12 19
16 19 4 0 19 17 33 38 14 20 38 51 54 68 15 16 41 48 58 70 30 40 38 49 116
139 24 28 64 75 89 105 61 72 116 134 172 192 25 26 44 48 41 48 -14 0 498
516 606 610 41 36 83 73 95 83 12 11 38 33 59 50 22 18 53 44 70 59 18 15 35
28 39 28 4 0 15 8 25 19 10 10 63 51 118 90 55 39 105 75 112 81 7 5 14 10 16
10 2 0 45 25 95 55 50 30 96 55 101 55 4 0 14 7 21 15 6 8 15 14 18 13 4 -1
30 9 57 21 84 38 191 71 247 76 l53 5 -62 -24 c-34 -14 -72 -30 -85 -37 -13
-7 -29 -14 -37 -15 -8 -2 -17 -6 -20 -11 -3 -4 -15 -10 -26 -11 -11 -2 -22 -7
-25 -11 -3 -4 -34 -23 -70 -42 -36 -19 -67 -36 -70 -40 -3 -3 -23 -16 -45 -29
-22 -13 -42 -26 -45 -29 -3 -4 -17 -12 -32 -20 -15 -8 -37 -22 -47 -33 -11
-10 -23 -18 -26 -18 -8 0 -262 -197 -305 -237 -8 -7 -26 -23 -40 -34 -63 -51
-178 -159 -359 -339 -209 -209 -336 -345 -498 -536 -147 -173 -165 -194 -208
-249 -22 -27 -43 -51 -47 -53 -5 -2 -8 -8 -8 -12 0 -5 -14 -24 -31 -42 -17
-18 -35 -42 -41 -53 -11 -19 -10 -19 9 -2 11 9 24 17 30 17 6 0 13 3 15 8 3 7
84 62 92 62 2 0 33 17 67 39 35 21 74 41 87 45 12 4 22 12 22 18 0 6 3 8 6 5
4 -4 19 0 33 8 30 17 161 76 176 80 6 1 17 5 25 8 44 19 163 57 220 72 36 9
72 19 80 22 8 3 22 7 30 8 8 1 51 10 95 19 114 23 131 25 215 32 137 12 384 6
485 -11 17 -3 46 -7 65 -9 19 -3 35 -6 35 -7 0 -1 11 -2 25 -3 14 -1 31 -5 38
-9 6 -5 12 -6 12 -3 0 2 32 -4 71 -15 39 -11 73 -18 74 -17 2 2 29 41 60 88
32 47 80 113 107 147 26 35 48 67 48 72 0 5 7 11 15 15 8 3 15 10 15 16 0 6
11 21 25 34 14 13 25 26 25 30 0 3 8 14 18 24 9 10 32 36 50 59 39 48 56 68
177 198 122 131 276 281 395 384 36 31 70 61 76 66 22 19 59 50 109 90 28 22
52 43 55 46 3 3 41 32 85 65 44 32 85 64 92 69 7 6 18 15 25 20 7 6 42 31 78
55 36 24 67 47 68 52 2 4 7 8 12 8 7 0 153 93 185 118 26 20 116 72 125 72 6
0 10 5 10 10 0 6 7 10 15 10 8 0 15 3 15 8 0 4 17 15 38 25 20 10 69 35 107
57 39 22 86 47 105 56 24 11 30 18 20 22 -8 3 -17 8 -20 12 -9 11 -195 98
-292 136 -51 20 -102 40 -113 44 -11 5 -38 14 -60 21 -22 6 -45 15 -51 20 -6
5 -14 6 -17 3 -3 -3 -12 -2 -19 2 -7 5 -18 9 -24 10 -6 1 -36 9 -65 17 -30 9
-65 18 -79 21 -14 3 -43 10 -65 15 -22 6 -41 10 -43 10 -4 0 -66 11 -97 17
-16 3 -43 7 -60 9 -16 2 -30 4 -30 5 0 1 -13 3 -30 4 -16 2 -68 7 -115 11 -47
5 -102 9 -122 9 -21 1 -38 5 -38 9 0 5 -4 6 -9 3 -13 -8 -93 -10 -117 -2 -11
3 -23 4 -26 1z"/>
<path d="M2828 5515 c-2 -2 -39 -5 -84 -9 -45 -3 -87 -8 -95 -10 -8 -3 -32 -7
-54 -10 -44 -6 -78 -13 -103 -20 -9 -3 -30 -8 -47 -11 -38 -8 -59 -13 -62 -15
-2 -2 -6 -3 -10 -4 -27 -6 -128 -39 -151 -48 -15 -6 -29 -12 -32 -13 -11 -4
-47 -19 -85 -36 -22 -9 -44 -19 -50 -20 -5 -2 -45 -22 -88 -46 -42 -24 -82
-43 -87 -43 -6 0 -10 -4 -10 -9 0 -5 -13 -14 -28 -20 -15 -6 -41 -23 -56 -36
-16 -14 -33 -25 -38 -25 -5 0 -15 -6 -23 -12 -7 -7 -43 -35 -80 -63 -132 -99
-306 -266 -416 -401 -35 -43 -70 -85 -77 -92 -7 -8 -19 -27 -27 -43 -9 -16
-19 -29 -23 -29 -4 0 -16 -17 -27 -37 -11 -21 -22 -40 -26 -43 -3 -3 -14 -21
-25 -40 -10 -19 -23 -38 -28 -41 -5 -4 -7 -11 -5 -17 2 -6 29 6 60 26 88 58
153 96 162 94 4 -1 7 2 7 7 0 5 17 18 38 29 88 47 107 57 112 63 3 4 32 21 65
38 33 18 67 36 75 41 55 33 147 83 156 84 7 1 18 7 25 12 14 11 209 108 219
110 3 0 34 14 70 31 94 46 179 83 188 83 4 0 24 9 44 19 19 11 38 17 42 14 3
-3 11 -1 18 5 34 27 359 121 481 138 60 8 260 12 272 5 6 -3 19 -7 30 -8 33
-5 87 -25 82 -30 -3 -2 -47 -6 -99 -8 -102 -5 -167 -11 -243 -25 -91 -17 -120
-22 -142 -25 -12 -2 -27 -6 -33 -10 -10 -6 -50 -16 -80 -19 -9 -1 -20 -4 -25
-7 -6 -3 -30 -11 -55 -18 -25 -7 -54 -18 -65 -23 -12 -5 -27 -10 -35 -12 -8
-2 -22 -6 -30 -9 -8 -3 -44 -17 -80 -30 -36 -13 -86 -34 -112 -46 -50 -22 -99
-43 -108 -46 -18 -4 -206 -101 -208 -108 -2 -4 -7 -5 -12 -2 -5 3 -16 -2 -24
-11 -9 -8 -16 -12 -16 -8 0 4 -8 1 -17 -7 -10 -8 -43 -28 -73 -44 -30 -15 -71
-39 -90 -52 -19 -13 -40 -23 -46 -23 -7 0 -14 -3 -16 -8 -1 -4 -39 -30 -83
-57 -44 -27 -95 -60 -112 -73 -18 -13 -33 -21 -33 -17 0 5 -8 -2 -19 -13 -10
-12 -22 -22 -25 -22 -8 0 -88 -54 -108 -72 -7 -7 -33 -26 -58 -43 -25 -16 -54
-37 -65 -47 -11 -9 -44 -36 -74 -59 l-54 -41 37 -34 c21 -19 40 -34 43 -34 4
0 16 -9 27 -19 75 -69 260 -133 424 -146 29 -3 58 -7 63 -10 5 -4 9 -1 9 5 0
7 6 8 19 1 10 -6 21 -8 24 -4 4 3 37 7 74 9 38 2 79 6 93 8 14 3 41 8 60 11
19 4 71 16 115 27 44 11 87 21 95 23 8 1 29 8 45 14 17 7 38 13 48 14 9 1 17
4 17 8 0 4 15 11 33 14 17 4 52 16 77 27 25 11 54 24 65 28 11 4 74 34 140 65
66 31 120 56 120 55 0 -2 24 12 53 29 29 17 55 31 57 31 2 0 68 37 147 82 79
45 154 88 168 95 14 8 39 23 55 33 17 11 46 27 65 37 19 9 40 24 47 33 7 8 13
11 13 5 0 -6 3 -6 8 1 10 14 170 94 257 129 39 15 79 31 90 35 34 14 60 23 70
25 6 2 44 13 85 26 41 13 78 24 83 25 4 1 8 2 10 4 2 1 9 3 52 14 11 2 43 10
70 16 28 7 59 14 70 15 11 2 20 4 20 5 0 1 11 4 25 6 52 10 65 13 65 14 0 1 9
3 20 5 11 1 38 5 60 9 22 3 51 8 64 11 14 2 47 7 74 10 84 10 85 14 9 91 -38
38 -84 80 -101 94 -18 14 -40 32 -49 40 -92 83 -258 189 -412 262 -64 30 -202
85 -235 92 -5 2 -30 8 -55 15 -25 7 -52 15 -60 16 -8 2 -35 8 -60 13 -25 6
-61 13 -80 16 -19 2 -56 8 -82 11 -45 7 -295 14 -300 10z"/>
</g>
</svg>
